<?xml version="1.0" standalone="no"?>
<svg viewBox="0 0 200 200" xmlns="http://www.w3.org/2000/svg">
  <path fill="#BAE6FF" d="M25,-37.9C38.8,-30,60.9,-34,60.1,-29.3C59.3,-24.7,35.6,-11.5,30.9,2.8C26.2,17,40.5,32.3,42.6,45.8C44.7,59.2,34.5,71,24.5,65.9C14.5,60.9,4.7,39.1,-8.8,33.6C-22.4,28,-39.6,38.6,-45.2,36.7C-50.8,34.7,-44.6,20.1,-46.2,6.9C-47.7,-6.4,-57,-18.3,-51.3,-20.4C-45.6,-22.4,-24.9,-14.5,-13.9,-23.7C-2.9,-32.8,-1.4,-58.9,2.1,-62.1C5.6,-65.4,11.2,-45.7,25,-37.9Z" transform="translate(100 100)" />
</svg>
