<?xml version="1.0" standalone="no"?>
<svg viewBox="0 0 200 200" xmlns="http://www.w3.org/2000/svg">
  <path fill="#8A3FFC" d="M5.7,-17.6C7.5,-7.7,9.2,-6.3,21.4,-2.9C33.7,0.5,56.5,5.9,63.4,14.4C70.4,22.8,61.6,34.3,51.8,44.1C42,53.9,31.3,62.1,19.9,63.7C8.4,65.3,-3.9,60.2,-11.5,52.1C-19.1,43.9,-22,32.8,-20.8,23.8C-19.5,14.8,-14,8,-13.1,3C-12.2,-2.1,-15.8,-5.5,-19.8,-14.2C-23.9,-23,-28.5,-37.2,-25.3,-46.4C-22,-55.7,-11,-59.9,-4.5,-52.9C1.9,-45.8,3.9,-27.4,5.7,-17.6Z" transform="translate(100 100)" />
</svg>
