<?xml version="1.0" standalone="no"?>
<svg viewBox="0 0 200 200" xmlns="http://www.w3.org/2000/svg">
  <path fill="#FFD6E8" d="M35.8,-54.1C47,-48.5,57.2,-39.6,59.6,-28.8C62,-18,56.7,-5.3,45.5,-0.1C34.4,5,17.4,2.7,10.4,6.9C3.5,11.2,6.6,22,6.5,22.1C6.3,22.2,3,11.5,-7.7,14C-18.4,16.4,-36.6,31.9,-45.4,33C-54.2,34.2,-53.8,20.9,-47.1,11.9C-40.5,2.9,-27.7,-2,-20,-5.2C-12.4,-8.4,-10,-10.1,-7.5,-19.6C-5,-29.1,-2.5,-46.5,4.9,-54.1C12.3,-61.7,24.6,-59.6,35.8,-54.1Z" transform="translate(100 100)" />
</svg>
